<svg width="470" height="86" viewBox="0 0 470 86" fill="none" xmlns="http://www.w3.org/2000/svg">
<path d="M21.1778 37.0973L6.29792 19.3255L11.3279 15.1178L21.1862 26.8928L42.4648 1.46138C41.138 0.537521 39.5342 0 37.8043 0H8.20408C3.69477 0 0 3.68706 0 8.20559V37.8028C0 42.3129 3.68637 46 8.20408 46H37.8043C42.3136 46 46 42.3129 46 37.8028V8.20559C46 7.96202 45.9916 7.72686 45.9664 7.49169L21.1694 37.1057L21.1778 37.0973Z" fill="#4CBCBC"/>
<path d="M73.4451 45.6011V3.10677L70.0312 17.684H71.4266V45.6011H62.1238V20.3257H60L64.862 0.11409H74.0595L73.9542 0.631883H105.803V45.6011H73.4451ZM97.0707 5.64309H82.0195V40.5899H97.0619V5.64309H97.0707ZM93.7094 16.0868V21.0014H95.6752V38.1589H83.687V21.0014H85.7055V16.0868H83.02V11.2774H85.7055V7.09117H93.7182V11.2774H96.0965V16.0868H93.7182H93.7094ZM90.3481 25.9073H88.7947V33.1477H90.3481V25.9073Z" fill="#4CBCBC"/>
<path d="M145.506 45.6977L138.371 40.8883H132.017L124.575 45.6977H111.288L118.528 40.8883H115.115V19.9044H155.178V40.8883H151.562L158.952 45.6977H145.515H145.506ZM148.245 10.0839V6.46806H136.458L134.387 10.1365H125.286L121.512 18.4563H111.894L116.185 9.31155H124.716L125.593 7.81082H116.291L111.692 0.105316H121.618L125.857 7.29303L130.095 0.105316H140.179L138.995 2.27304H157.398V10.0751H148.253L148.245 10.0839ZM145.814 18.4563L141.987 15.92L136.871 18.4563H122.135L136.195 11.216V7.80204H145.498V11.3125H147.823L158.881 18.4476H145.805L145.814 18.4563ZM145.866 24.3452H124.417V25.8986H145.866V24.3452ZM145.866 29.6197H124.417V31.1731H145.866V29.6197ZM145.866 34.6835H124.417V36.3335H145.866V34.6835Z" fill="#4CBCBC"/>
<path d="M166.859 42.6523H163.55L164.375 14.0156H167.684L166.859 42.6523ZM177.092 11.6899V45.8556H168.307L168.36 11.6899H163.761V6.9332H168.307V0.00877807H177.092V6.9332H180.918V11.6899H177.092ZM183.034 45.8556V31.5855H181.48L181.84 42.6436H178.637L177.706 14.0068H180.962L181.427 28.2243L184.578 20.8874H193.468L192.696 23.0112H194.662L194.197 20.8874H203.034L203.5 23.0112H209.388V27.3554H203.447V29.216H208.511V33.3496H203.447V35.3154H208.511V39.449H203.447V41.3622H209.599V45.8556H183.034V45.8556ZM206.141 6.98585V8.63578H197.611V6.98585H193.117V8.63578H184.692V6.98585H181.638V2.53632H184.692V0H193.117V2.53632H197.611V0H206.141V2.53632H209.704V6.98585H206.141ZM182.419 19.8605V9.73281H194.671V19.8605H182.419V19.8605ZM189.809 13.7611H187.22V15.8761H189.809V13.7611ZM194.925 27.3554H191.564V29.216H194.925V27.3554ZM194.925 33.3496H191.564V35.3154H194.925V33.3496ZM194.925 39.449H191.564V41.3622H194.925V39.449ZM196.215 19.8605V9.73281H208.669V19.8605H196.215ZM203.658 13.7611H201.025V15.8761H203.658V13.7611Z" fill="#4CBCBC"/>
<path d="M221.035 43.4246H215.093L217.164 19.7991H223.106L221.035 43.4246ZM239.851 7.03852H232.926V12.4622H241.457V17.4208H232.926V45.6977H223.931V17.4208H215.505V12.4622H223.931V7.03852H216.646V2.02731H231.478L232.303 0.114094H242.334L239.851 7.03852ZM235.77 43.4246L233.804 19.7991H239.798L241.711 43.4246H235.77ZM242.642 36.1843V4.23891H249.829V36.1843H242.642ZM245.74 45.6977L243.572 40.5812H251.532V0.105316H260.729V45.6977H245.74V45.6977Z" fill="#4CBCBC"/>
<path d="M309.63 7.13507L310.973 11.4266H302.241L301.003 7.13507H299.713L298.265 11.4266H294.956L295.676 13.2345H312.526V22.1775H309.323V31.4276H279.651V33.3935H311.078V45.5397H270.243V22.1775H267.759V13.2345H285.022L284.091 11.4266H279.958L278.668 7.24038H277.895L276.447 11.4266H266.829L270.962 0.0526733H280.318L279.545 2.32571H289.989V7.24038H286.988L288.172 10.3384H289.515L293.131 0.0526733H302.179L301.407 2.27305H312.518V7.13507H309.621H309.63ZM302.908 18.0439H277.325V20.0097H302.908V18.0439ZM299.853 24.7138H279.642V26.8815H299.853V24.7138ZM301.556 38.0975H279.642V40.941H301.556V38.0975Z" fill="#4CBCBC"/>
<path d="M335.222 45.8556V42.9068L318.678 45.4432V40.3793L322.558 39.7562V23.7308H319.302V18.9215H322.558V5.27449H318.784V0.517796H335.634V5.27449H332.115V18.9215H334.853V23.7308H332.115V38.2555L335.529 37.685V40.941H345.56V36.0263H337.029V31.1116H345.56V26.8727H336.617V0.509018H363.858V26.8727H354.915V31.1116H363.086V36.0263H354.915V40.941H364.999V45.8556H335.222V45.8556ZM345.56 5.48512H343.076V11.1721H345.56V5.48512ZM345.56 16.0341H343.076V21.8791H345.56V16.0341ZM357.452 5.48512H354.915V11.1721H357.452V5.48512ZM357.452 16.0341H354.915V21.8791H357.452V16.0341Z" fill="#4CBCBC"/>
<path d="M380.823 44.4076H370.326L376.891 31.331H387.335L380.823 44.4076ZM406.309 29.6723L404.194 26.2584L402.026 29.725H398.507V45.4871H385.43L383.21 40.5285H388.634V29.725H371.011V24.9156H379.594L387.502 19.0707H372.977V14.472L382.903 7.23161H371.011V2.27305H405.124L405.896 0.0526733H416.647L414.164 7.24038H396.585L387.019 14.2175H394.049L400.306 9.56607H413.795L401.438 18.9215H409.916L416.735 29.6723H406.291H406.309ZM400.157 19.8518L393.54 24.8103H403.255L400.157 19.8518ZM406.511 44.4076L399.893 31.331H410.285L417.007 44.4076H406.511Z" fill="#4CBCBC"/>
<path d="M433.085 10.7596H440.992V15.4637L436.13 20.7908H441.458V29.8391H422.799V24.3627L430.452 15.727H422.65V10.8649L431.382 0.00877807H441.773L433.085 10.7596ZM422.747 45.7503V31.5329H428.328V45.7503H422.747ZM429.724 45.7503V31.5329H435.104V45.7503H429.724ZM435.665 21.3525L432.462 24.9156H435.665V21.3525ZM436.596 45.7503V31.5329H441.817V45.7503H436.596ZM459.958 23.2657L458.87 20.0097L457.474 23.2657H442.177V18.509L446.056 9.61871H441.563V4.75671H450.146L448.803 0H458.369L459.659 4.75671H467.777V9.61871H454.955L451.234 18.4037H458.369L456.149 11.8391H464.881L468.655 23.2657H459.975H459.958ZM451.225 45.7503H442.125L444.705 38.2028V25.1263H453.542V39.4929L451.217 45.7503H451.225ZM467.409 45.7503H455.78V25.1263H464.618V40.6865H469.111L467.409 45.7503Z" fill="#4CBCBC"/>
<path d="M395.058 75.8032C395.084 75.0968 394.203 74.6521 393.236 74.6521H387.463L385.405 85.2644H377.923L383.495 56.6017H397.753C399.505 56.6017 401.563 56.8982 403.141 57.7963C404.99 58.8427 405.566 60.4734 405.766 62.3046C405.958 64.0137 405.426 65.9495 404.755 67.5192C403.979 69.2283 402.444 70.7979 400.665 71.5042C402.069 72.3239 402.514 73.8499 402.444 75.3759C402.313 77.9483 402.339 81.8549 403.386 85.2818H395.232C394.849 82.0816 394.953 78.6895 395.058 75.8293V75.8032ZM389.695 63.1853L388.771 67.9464H394.203C394.945 67.9464 395.634 67.8679 396.157 67.4581C397.491 66.5251 398.075 64.6677 396.985 63.7695C396.471 63.3597 395.686 63.1766 395.128 63.1766H389.695V63.1853Z" fill="#4CBCBC"/>
<path d="M433.574 69.7689L424.724 85.2557H418.279L415.445 69.7689L412.437 85.2557H405.069L410.632 56.6278H420.128L423.416 75.3497L434.132 56.6278H443.55L437.987 85.2557H430.575L433.583 69.7689H433.574Z" fill="#4CBCBC"/>
<path d="M449.227 85.0377C443.193 83.9215 440.943 79.7533 442.739 73.6057H450.221C449.515 77.0327 449.515 78.2186 453.011 78.7767C454.415 79.0383 456.02 79.0034 457.363 78.5936C458.461 78.2971 459.072 77.6605 459.159 77.0327C459.272 76.4397 458.923 75.7683 457.868 75.2451C455.889 74.312 450.98 72.568 448.241 71.5216C445.189 70.3706 444.283 67.7633 445.076 64.4497C445.686 61.6942 447.962 59.1654 450.805 57.9707C454.529 56.4447 459.211 55.9215 462.865 57.0028C465.298 57.7091 467.53 59.2351 468.332 61.6157C468.873 63.2202 468.856 65.0427 468.515 67.1965H460.772C461.06 64.7375 460.999 62.9499 458.165 62.6185C456.787 62.4354 455.095 62.697 453.857 63.1417C451.581 63.9265 452.654 65.4874 454.075 65.8623C456.517 66.5338 459.621 67.7982 461.679 68.5045C463.632 69.1759 465.838 70.6671 466.684 72.2628C467.766 74.3469 467.443 76.9891 466.222 79.4481C464.748 82.4217 461.932 83.9128 459.054 84.7325C456.028 85.5521 451.939 85.5173 449.244 85.0289L449.227 85.0377Z" fill="#4CBCBC"/>
<path fill-rule="evenodd" clip-rule="evenodd" d="M371.331 84.8284H60V56H376.702L371.331 84.8284ZM80.9716 76.588L82.2342 70.606H84.9305C86.7007 70.606 87.0844 71.4868 86.7181 73.2046C86.3345 74.9312 86.2037 75.9776 86.2821 76.5967H88.6801C88.6044 75.9738 88.8292 74.9123 89.1586 73.3572L89.1586 73.3571L89.1946 73.1872C89.6917 70.763 88.5755 70.0218 87.9215 69.734C89.7091 69.2806 90.9125 68.0075 90.9125 65.9932C90.9125 63.7434 89.3777 62.3656 86.6833 62.3656H81.4861L78.469 76.588H80.9716ZM82.672 68.5568H85.2008C87.0844 68.5568 88.3401 67.9028 88.3401 66.246C88.3401 65.0339 87.6337 64.4061 86.1165 64.4061H83.544L82.672 68.5568ZM96.9206 66.0193H94.4964L92.2553 76.5967H94.6795L96.9206 66.0193ZM97.8623 61.5459H95.4381L94.9149 64.0486H97.3391L97.8623 61.5459ZM107.855 75.2276C107.132 78.6285 106.155 80.8869 102.196 80.8869C98.2373 80.8869 98.0106 78.8203 98.0019 77.5821H100.452C100.478 78.332 100.984 79.0383 102.397 79.0383C104.211 79.0383 104.865 77.8785 105.388 75.5416L105.51 75.0096C104.803 75.9863 103.844 76.492 102.405 76.492C100.182 76.492 98.9262 74.8963 98.9262 72.4024C98.9262 69.2806 100.888 65.81 104.28 65.81C105.981 65.81 106.888 66.5251 107.149 67.2227C107.254 66.839 107.437 66.2635 107.533 66.0193H109.861C109.669 66.8216 109.443 67.8069 109.251 68.7138L107.855 75.2189V75.2276ZM101.481 72.2367C101.481 73.7016 102.109 74.5039 103.365 74.5039C105.004 74.5039 106.016 73.0651 106.452 71.0333C106.809 69.4027 106.582 67.8069 104.612 67.8069C102.641 67.8069 101.481 70.1526 101.481 72.2367ZM115.773 67.4756L117.029 61.5459H114.613L111.431 76.588H113.855L115.119 70.6496C115.468 69.019 116.401 67.8592 117.918 67.8592C119.261 67.8592 119.566 68.644 119.253 70.1613L117.91 76.588H120.316L121.746 69.8125C122.374 66.7692 120.84 65.81 119.078 65.81C117.413 65.81 116.436 66.6036 115.773 67.4756ZM125.034 66.0193H126.665L127.292 63.0981H129.699L129.08 66.0193H131.155L130.737 67.9028H128.661L127.475 73.5883C127.319 74.3469 127.371 74.7916 128.234 74.7916C128.548 74.7916 128.871 74.7742 129.185 74.7219L128.801 76.5182C128.225 76.7013 127.598 76.71 127.057 76.71C125.034 76.71 124.633 75.6026 125.008 73.7801L126.237 67.9028H124.607L125.025 66.0193H125.034ZM136.457 74.9573C135.123 74.9573 134.495 74.3295 134.408 73.3528V73.3616H131.949C131.87 75.4893 133.388 76.806 136.161 76.806C138.672 76.806 140.695 75.6549 140.695 73.3354C140.695 71.8617 139.814 70.92 137.434 70.1352C136.065 69.6817 135.489 69.4201 135.489 68.7923C135.489 67.9813 136.222 67.6412 137.041 67.6412C138.41 67.6412 138.724 68.3301 138.768 68.958H141.227C141.297 67.3273 140.076 65.8187 137.198 65.8187C134.469 65.8187 133.056 67.2663 133.056 69.0887C133.056 70.3619 133.798 71.199 136.204 71.9751C137.591 72.4285 138.192 72.786 138.192 73.5883C138.192 74.3905 137.66 74.9573 136.457 74.9573ZM162.207 71.0072C162.731 68.5045 163.358 65.6967 163.742 64.1271H163.664C162.495 66.7692 159.748 72.1669 157.472 76.5967H155.257C155.207 75.9371 155.146 75.1676 155.08 74.337C154.794 70.7424 154.417 66.0047 154.403 64.0922H154.316C154.089 65.7054 153.47 68.8446 152.955 71.2862L151.839 76.588H149.485L152.502 62.3656H156.313C156.653 66.0891 157.063 71.2949 157.097 73.318H157.124C157.604 72.1306 159.055 69.3508 160.582 66.4259L160.582 66.4256C161.298 65.0544 162.03 63.6514 162.687 62.3656H166.506L163.489 76.588H161.021L162.207 70.9984V71.0072ZM176.037 76.5967C176.063 76.2479 176.299 75.0184 176.517 73.9981V74.0068L177.467 69.5945C178.043 66.9 176.255 65.8275 173.735 65.8275C170.552 65.8275 169.375 67.3011 168.992 68.958H171.468L171.483 68.9235C171.751 68.3182 172.089 67.554 173.535 67.554C175.209 67.554 175.226 68.644 175.061 69.4899L174.956 70.0567C174.827 70.0603 174.688 70.0632 174.539 70.0662C173.974 70.0779 173.276 70.0923 172.523 70.1613C170.265 70.3968 167.605 71.1467 167.605 74.1115C167.605 75.3584 168.512 76.806 170.544 76.806C172.575 76.806 173.334 75.995 173.866 75.2625C173.788 75.6811 173.7 76.2653 173.674 76.5967H176.037ZM172.654 71.8268C173.317 71.7571 173.953 71.7135 174.599 71.7135L174.555 71.8792C174.224 73.2831 173.604 74.9224 171.555 74.9224C170.57 74.9224 170.125 74.3731 170.125 73.7016C170.125 72.5419 171.041 72.0448 172.654 71.8268ZM181.496 68.7051C181.544 68.4685 181.592 68.233 181.64 67.9985C181.777 67.3341 181.912 66.6767 182.028 66.0193H184.4C184.374 66.3245 184.225 67.2314 184.156 67.5017C184.688 66.7518 185.647 65.81 187.469 65.81C189.527 65.81 190.748 67.0395 190.085 70.1264L188.725 76.5967H186.318L187.679 70.1352C187.966 68.8097 187.679 67.8767 186.344 67.8767C184.783 67.8767 183.842 69.1672 183.414 71.1903L182.272 76.5967H179.848L181.513 68.7051H181.496ZM200.889 76.5967C200.916 76.2479 201.151 75.0184 201.369 73.9981V74.0068L202.319 69.5945C202.895 66.9 201.107 65.8275 198.587 65.8275C195.404 65.8275 194.227 67.3011 193.844 68.958H196.32L196.335 68.9235C196.603 68.3181 196.941 67.554 198.387 67.554C200.061 67.554 200.078 68.644 199.913 69.4899L199.808 70.0567C199.679 70.0603 199.54 70.0632 199.391 70.0662C198.826 70.0779 198.128 70.0923 197.375 70.1613C195.117 70.3968 192.457 71.1467 192.457 74.1115C192.457 75.3584 193.364 76.806 195.396 76.806C197.428 76.806 198.186 75.995 198.718 75.2625C198.64 75.6811 198.552 76.2653 198.526 76.5967H200.889ZM197.506 71.8268C198.169 71.7571 198.805 71.7135 199.451 71.7135L199.407 71.8792C199.084 73.2831 198.456 74.9224 196.407 74.9224C195.422 74.9224 194.977 74.3731 194.977 73.7016C194.977 72.5419 195.893 72.0448 197.506 71.8268ZM214.013 75.2276C213.289 78.6285 212.313 80.8869 208.354 80.8869C204.395 80.8869 204.168 78.8203 204.159 77.5821H206.61C206.636 78.332 207.142 79.0383 208.554 79.0383C210.368 79.0383 211.022 77.8785 211.545 75.5416L211.667 75.0096C210.961 75.9863 210.002 76.492 208.563 76.492C206.339 76.492 205.084 74.8963 205.084 72.4024C205.084 69.2806 207.046 65.81 210.438 65.81C212.138 65.81 213.045 66.5251 213.307 67.2227C213.411 66.839 213.594 66.2635 213.69 66.0193H216.019C215.827 66.8216 215.6 67.8069 215.408 68.7138L214.013 75.2189V75.2276ZM207.639 72.2367C207.639 73.7016 208.266 74.5039 209.522 74.5039C211.162 74.5039 212.173 73.0651 212.609 71.0333C212.967 69.4027 212.74 67.8069 210.769 67.8069C208.798 67.8069 207.639 70.1526 207.639 72.2367ZM220.422 72.568C220.422 72.2977 220.448 72.0972 220.492 71.8094L220.501 71.8181H227.424C227.607 71.1816 227.703 70.5712 227.703 69.7864C227.703 67.7023 226.666 65.8187 223.649 65.8187C219.541 65.8187 217.981 69.6556 217.981 72.507C217.981 75.0271 219.315 76.7973 222.096 76.7973C225.114 76.7973 226.439 75.0358 227.067 73.4488H224.547C224.146 74.1987 223.64 74.8876 222.314 74.8876C220.989 74.8876 220.422 73.9109 220.422 72.568ZM225.375 69.5684C225.375 69.734 225.366 69.9259 225.323 70.1439V70.1352H220.841C221.259 68.583 222.227 67.6674 223.553 67.6674C224.878 67.6674 225.375 68.4696 225.375 69.5684ZM231.322 68.9841C231.532 67.99 231.741 66.9872 231.915 66.0193H234.287C234.252 66.2809 234.156 66.9349 234.06 67.3883C234.74 66.4902 235.569 65.8187 237.077 65.8187C238.586 65.8187 239.301 66.4815 239.502 67.5976C240.243 66.6384 241.289 65.8187 242.981 65.8187C244.76 65.8187 246.129 66.839 245.51 69.7253L244.053 76.5967H241.69L243.086 70.0218C243.304 68.9754 243.269 67.8592 241.821 67.8592C240.374 67.8592 239.72 68.958 239.371 70.6235L238.098 76.5967H235.708L237.095 70.0567C237.356 68.8359 237.182 67.8767 235.883 67.8767C234.488 67.8767 233.712 68.9754 233.337 70.7892L232.116 76.5967H229.718L231.322 68.9928V68.9841ZM250.836 71.8181L250.826 71.8871C250.788 72.1349 250.759 72.3227 250.759 72.568C250.759 73.9109 251.326 74.8876 252.651 74.8876C253.977 74.8876 254.483 74.1987 254.884 73.4488H257.404C256.776 75.0358 255.45 76.7973 252.425 76.7973C249.643 76.7973 248.309 75.0271 248.309 72.507C248.309 69.6556 249.87 65.8187 253.977 65.8187C256.994 65.8187 258.032 67.7023 258.032 69.7864C258.032 70.5712 257.936 71.1816 257.753 71.8181H250.836ZM255.721 69.5684C255.721 69.734 255.712 69.9259 255.668 70.1439V70.1352H251.186C251.605 68.583 252.573 67.6674 253.898 67.6674C255.224 67.6674 255.721 68.4696 255.721 69.5684ZM261.873 68.0015L261.873 67.999L261.873 67.9976C262.01 67.3335 262.145 66.6764 262.261 66.0193H264.633C264.607 66.3245 264.458 67.2314 264.389 67.5017C264.92 66.7518 265.88 65.81 267.702 65.81C269.76 65.81 270.981 67.0395 270.318 70.1264L268.958 76.5967H266.551L267.911 70.1352C268.199 68.8097 267.911 67.8767 266.577 67.8767C265.016 67.8767 264.075 69.1672 263.647 71.1903L262.505 76.5967H260.081L261.746 68.7051H261.729C261.776 68.4695 261.825 68.2351 261.873 68.0015ZM275.297 66.0193H273.667H273.658L273.239 67.9028H274.87L273.64 73.7801C273.266 75.6026 273.667 76.71 275.69 76.71C276.23 76.71 276.858 76.7013 277.434 76.5182L277.817 74.7219C277.503 74.7742 277.181 74.7916 276.867 74.7916C276.004 74.7916 275.951 74.3469 276.108 73.5883L277.294 67.9028H279.37L279.788 66.0193H277.713L278.332 63.0981H275.925L275.297 66.0193ZM289.206 72.3064L289.206 72.3152H286.651C286.729 75.0097 288.508 76.8147 291.97 76.8147C296.147 76.8147 297.533 74.6609 297.533 72.4111C297.533 70.3619 296.243 69.1847 293.339 68.1383C291.403 67.4407 290.95 66.9 290.95 66.0455C290.95 64.8944 291.848 64.1707 293.252 64.1707C295.179 64.1707 295.676 65.2258 295.772 66.2896H298.327C298.283 63.9178 296.635 62.1738 293.383 62.1738C289.921 62.1738 288.351 64.1096 288.351 66.3245C288.351 68.0685 289.371 69.176 292.179 70.17C294.211 70.9025 294.882 71.5565 294.882 72.725C294.882 74.1725 293.88 74.8353 292.223 74.8353C290.343 74.8353 289.34 73.9056 289.206 72.3152H289.214L289.206 72.3064ZM303.969 74.6434C303.934 73.5534 303.672 70.5973 303.201 66.0193H300.777L302.251 77.1984C301.649 78.2622 301.231 78.8028 299.914 78.8028C299.46 78.8028 299.181 78.7593 298.981 78.7157L298.527 80.7474C298.876 80.8259 299.53 80.8869 299.862 80.8869C301.972 80.8869 303.071 80.5643 304.876 77.1112L310.674 66.0193H308.137C306.259 69.7477 305.079 72.2909 304.402 73.7519C304.233 74.1156 304.096 74.4123 303.986 74.6434H303.969ZM313.875 73.3528C313.962 74.3295 314.59 74.9573 315.924 74.9573C317.127 74.9573 317.659 74.3905 317.659 73.5883C317.659 72.786 317.057 72.4285 315.671 71.9751C313.264 71.199 312.523 70.3619 312.523 69.0887C312.523 67.2663 313.936 65.8187 316.665 65.8187C319.543 65.8187 320.763 67.3273 320.694 68.958H318.235C318.191 68.3301 317.877 67.6412 316.508 67.6412C315.68 67.6412 314.956 67.9813 314.956 68.7923C314.956 69.4201 315.531 69.6817 316.9 70.1352C319.281 70.92 320.162 71.8617 320.162 73.3354C320.162 75.6549 318.139 76.806 315.627 76.806C312.854 76.806 311.337 75.4893 311.416 73.3616H313.875V73.3528ZM324.923 66.0193H323.292H323.284L322.865 67.9028H324.496L323.266 73.7801C322.891 75.6026 323.292 76.71 325.315 76.71C325.856 76.71 326.484 76.7013 327.059 76.5182L327.443 74.7219C327.129 74.7742 326.806 74.7916 326.492 74.7916C325.629 74.7916 325.577 74.3469 325.734 73.5883L326.92 67.9028H328.995L329.414 66.0193H327.338L327.957 63.0981H325.551L324.923 66.0193ZM332.864 71.8871L332.874 71.8181H339.791C339.974 71.1816 340.07 70.5712 340.07 69.7864C340.07 67.7023 339.032 65.8187 336.015 65.8187C331.908 65.8187 330.347 69.6556 330.347 72.507C330.347 75.0271 331.681 76.7973 334.463 76.7973C337.488 76.7973 338.814 75.0358 339.442 73.4488H336.922C336.521 74.1987 336.015 74.8876 334.689 74.8876C333.364 74.8876 332.797 73.9109 332.797 72.568C332.797 72.3227 332.826 72.1348 332.864 71.8871ZM337.706 70.1439C337.75 69.9259 337.759 69.734 337.759 69.5684C337.759 68.4696 337.262 67.6674 335.936 67.6674C334.611 67.6674 333.643 68.583 333.224 70.1352H337.706V70.1439ZM344.299 66.0193C344.124 66.9872 343.915 67.99 343.706 68.9841V68.9928L342.101 76.5967H344.499L345.72 70.7892C346.095 68.9754 346.871 67.8767 348.266 67.8767C349.566 67.8767 349.74 68.8359 349.478 70.0567L348.092 76.5967H350.481L351.754 70.6235C352.103 68.958 352.757 67.8592 354.205 67.8592C355.652 67.8592 355.687 68.9754 355.469 70.0218L354.074 76.5967H356.437L357.893 69.7253C358.512 66.839 357.143 65.8187 355.365 65.8187C353.673 65.8187 352.626 66.6384 351.885 67.5976C351.685 66.4815 350.97 65.8187 349.461 65.8187C347.952 65.8187 347.124 66.4902 346.444 67.3883C346.54 66.9349 346.636 66.2809 346.671 66.0193H344.299Z" fill="#4CBCBC"/>
</svg>
