<svg width="470" height="179" viewBox="0 0 470 179" fill="none" xmlns="http://www.w3.org/2000/svg">
<g clip-path="url(#clip0_3_2)">
<path d="M240.49 44.17L222.77 23.01L228.76 18L240.5 32.02L265.84 1.74C264.26 0.64 262.35 0 260.29 0H225.04C219.67 0 215.27 4.39 215.27 9.77V45.01C215.27 50.38 219.66 54.77 225.04 54.77H260.29C265.66 54.77 270.05 50.38 270.05 45.01V9.77C270.05 9.48 270.04 9.2 270.01 8.92L240.48 44.18L240.49 44.17Z" fill="white"/>
<path d="M18.38 132.77V84.35L14.49 100.96H16.08V132.77H5.48V103.97H3.06L8.6 80.94H19.08L18.96 81.53H55.25V132.77H18.38ZM45.3 87.24H28.15V127.06H45.29V87.24H45.3ZM41.47 99.14V104.74H43.71V124.29H30.05V104.74H32.35V99.14H29.29V93.66H32.35V88.89H41.48V93.66H44.19V99.14H41.48H41.47ZM37.64 110.33H35.87V118.58H37.64V110.33Z" fill="white"/>
<path d="M100.49 132.88L92.36 127.4H85.12L76.64 132.88H61.5L69.75 127.4H65.86V103.49H111.51V127.4H107.39L115.81 132.88H100.5H100.49ZM103.61 92.3V88.18H90.18L87.82 92.36H77.45L73.15 101.84H62.19L67.08 91.42H76.8L77.8 89.71H67.2L61.96 80.93H73.27L78.1 89.12L82.93 80.93H94.42L93.07 83.4H114.04V92.29H103.62L103.61 92.3ZM100.84 101.84L96.48 98.95L90.65 101.84H73.86L89.88 93.59V89.7H100.48V93.7H103.13L115.73 101.83H100.83L100.84 101.84ZM100.9 108.55H76.46V110.32H100.9V108.55ZM100.9 114.56H76.46V116.33H100.9V114.56ZM100.9 120.33H76.46V122.21H100.9V120.33Z" fill="white"/>
<path d="M124.82 129.41H121.05L121.99 96.78H125.76L124.82 129.41ZM136.48 94.13V133.06H126.47L126.53 94.13H121.29V88.71H126.47V80.82H136.48V88.71H140.84V94.13H136.48ZM143.25 133.06V116.8H141.48L141.89 129.4H138.24L137.18 96.77H140.89L141.42 112.97L145.01 104.61H155.14L154.26 107.03H156.5L155.97 104.61H166.04L166.57 107.03H173.28V111.98H166.51V114.1H172.28V118.81H166.51V121.05H172.28V125.76H166.51V127.94H173.52V133.06H143.25V133.06ZM169.58 88.77V90.65H159.86V88.77H154.74V90.65H145.14V88.77H141.66V83.7H145.14V80.81H154.74V83.7H159.86V80.81H169.58V83.7H173.64V88.77H169.58ZM142.55 103.44V91.9H156.51V103.44H142.55V103.44ZM150.97 96.49H148.02V98.9H150.97V96.49ZM156.8 111.98H152.97V114.1H156.8V111.98ZM156.8 118.81H152.97V121.05H156.8V118.81ZM156.8 125.76H152.97V127.94H156.8V125.76ZM158.27 103.44V91.9H172.46V103.44H158.27ZM166.75 96.49H163.75V98.9H166.75V96.49Z" fill="white"/>
<path d="M186.55 130.29H179.78L182.14 103.37H188.91L186.55 130.29ZM207.99 88.83H200.1V95.01H209.82V100.66H200.1V132.88H189.85V100.66H180.25V95.01H189.85V88.83H181.55V83.12H198.45L199.39 80.94H210.82L207.99 88.83ZM203.34 130.29L201.1 103.37H207.93L210.11 130.29H203.34ZM211.17 122.04V85.64H219.36V122.04H211.17ZM214.7 132.88L212.23 127.05H221.3V80.93H231.78V132.88H214.7V132.88Z" fill="white"/>
<path d="M287.5 88.94L289.03 93.83H279.08L277.67 88.94H276.2L274.55 93.83H270.78L271.6 95.89H290.8V106.08H287.15V116.62H253.34V118.86H289.15V132.7H242.62V106.08H239.79V95.89H259.46L258.4 93.83H253.69L252.22 89.06H251.34L249.69 93.83H238.73L243.44 80.87H254.1L253.22 83.46H265.12V89.06H261.7L263.05 92.59H264.58L268.7 80.87H279.01L278.13 83.4H290.79V88.94H287.49H287.5ZM279.84 101.37H250.69V103.61H279.84V101.37ZM276.36 108.97H253.33V111.44H276.36V108.97ZM278.3 124.22H253.33V127.46H278.3V124.22Z" fill="white"/>
<path d="M316.66 133.06V129.7L297.81 132.59V126.82L302.23 126.11V107.85H298.52V102.37H302.23V86.82H297.93V81.4H317.13V86.82H313.12V102.37H316.24V107.85H313.12V124.4L317.01 123.75V127.46H328.44V121.86H318.72V116.26H328.44V111.43H318.25V81.39H349.29V111.43H339.1V116.26H348.41V121.86H339.1V127.46H350.59V133.06H316.66V133.06ZM328.44 87.06H325.61V93.54H328.44V87.06ZM328.44 99.08H325.61V105.74H328.44V99.08ZM341.99 87.06H339.1V93.54H341.99V87.06ZM341.99 99.08H339.1V105.74H341.99V99.08Z" fill="white"/>
<path d="M368.62 131.41H356.66L364.14 116.51H376.04L368.62 131.41ZM397.66 114.62L395.25 110.73L392.78 114.68H388.77V132.64H373.87L371.34 126.99H377.52V114.68H357.44V109.2H367.22L376.23 102.54H359.68V97.3L370.99 89.05H357.44V83.4H396.31L397.19 80.87H409.44L406.61 89.06H386.58L375.68 97.01H383.69L390.82 91.71H406.19L392.11 102.37H401.77L409.54 114.62H397.64H397.66ZM390.65 103.43L383.11 109.08H394.18L390.65 103.43ZM397.89 131.41L390.35 116.51H402.19L409.85 131.41H397.89Z" fill="white"/>
<path d="M428.17 93.07H437.18V98.43L431.64 104.5H437.71V114.81H416.45V108.57L425.17 98.73H416.28V93.19L426.23 80.82H438.07L428.17 93.07ZM416.39 132.94V116.74H422.75V132.94H416.39ZM424.34 132.94V116.74H430.47V132.94H424.34ZM431.11 105.14L427.46 109.2H431.11V105.14ZM432.17 132.94V116.74H438.12V132.94H432.17ZM458.79 107.32L457.55 103.61L455.96 107.32H438.53V101.9L442.95 91.77H437.83V86.23H447.61L446.08 80.81H456.98L458.45 86.23H467.7V91.77H453.09L448.85 101.78H456.98L454.45 94.3H464.4L468.7 107.32H458.81H458.79ZM448.84 132.94H438.47L441.41 124.34V109.44H451.48V125.81L448.83 132.94H448.84ZM467.28 132.94H454.03V109.44H464.1V127.17H469.22L467.28 132.94Z" fill="white"/>
<path d="M384.24 167.35C384.27 166.54 383.26 166.03 382.15 166.03H375.53L373.17 178.2H364.59L370.98 145.33H387.33C389.34 145.33 391.7 145.67 393.51 146.7C395.63 147.9 396.29 149.77 396.52 151.87C396.74 153.83 396.13 156.05 395.36 157.85C394.47 159.81 392.71 161.61 390.67 162.42C392.28 163.36 392.79 165.11 392.71 166.86C392.56 169.81 392.59 174.29 393.79 178.22H384.44C384 174.55 384.12 170.66 384.24 167.38V167.35ZM378.09 152.88L377.03 158.34H383.26C384.11 158.34 384.9 158.25 385.5 157.78C387.03 156.71 387.7 154.58 386.45 153.55C385.86 153.08 384.96 152.87 384.32 152.87H378.09V152.88Z" fill="white"/>
<path d="M428.41 160.43L418.26 178.19H410.87L407.62 160.43L404.17 178.19H395.72L402.1 145.36H412.99L416.76 166.83L429.05 145.36H439.85L433.47 178.19H424.97L428.42 160.43H428.41Z" fill="white"/>
<path d="M446.36 177.94C439.44 176.66 436.86 171.88 438.92 164.83H447.5C446.69 168.76 446.69 170.12 450.7 170.76C452.31 171.06 454.15 171.02 455.69 170.55C456.95 170.21 457.65 169.48 457.75 168.76C457.88 168.08 457.48 167.31 456.27 166.71C454 165.64 448.37 163.64 445.23 162.44C441.73 161.12 440.69 158.13 441.6 154.33C442.3 151.17 444.91 148.27 448.17 146.9C452.44 145.15 457.81 144.55 462 145.79C464.79 146.6 467.35 148.35 468.27 151.08C468.89 152.92 468.87 155.01 468.48 157.48H459.6C459.93 154.66 459.86 152.61 456.61 152.23C455.03 152.02 453.09 152.32 451.67 152.83C449.06 153.73 450.29 155.52 451.92 155.95C454.72 156.72 458.28 158.17 460.64 158.98C462.88 159.75 465.41 161.46 466.38 163.29C467.62 165.68 467.25 168.71 465.85 171.53C464.16 174.94 460.93 176.65 457.63 177.59C454.16 178.53 449.47 178.49 446.38 177.93L446.36 177.94Z" fill="white"/>
<path fill-rule="evenodd" clip-rule="evenodd" d="M357.03 177.7H0V144.64H363.19L357.03 177.7ZM24.05 168.25L25.4979 161.39H28.59C30.62 161.39 31.06 162.4 30.64 164.37C30.2 166.35 30.05 167.55 30.14 168.26H32.89C32.8031 167.546 33.061 166.328 33.4387 164.545L33.4387 164.545L33.4387 164.545L33.48 164.35C34.05 161.57 32.77 160.72 32.02 160.39C34.07 159.87 35.45 158.41 35.45 156.1C35.45 153.52 33.69 151.94 30.6 151.94H24.64L21.18 168.25H24.05ZM26 159.04H28.9C31.06 159.04 32.5 158.29 32.5 156.39C32.5 155 31.69 154.28 29.95 154.28H27L26 159.04ZM42.34 156.13H39.56L36.99 168.26H39.77L42.34 156.13ZM43.42 151H40.64L40.04 153.87H42.82L43.42 151ZM54.88 166.69C54.05 170.59 52.93 173.18 48.39 173.18C43.85 173.18 43.59 170.81 43.58 169.39H46.39C46.42 170.25 47 171.06 48.62 171.06C50.7 171.06 51.45 169.73 52.05 167.05L52.19 166.44C51.38 167.56 50.28 168.14 48.63 168.14C46.08 168.14 44.64 166.31 44.64 163.45C44.64 159.87 46.89 155.89 50.78 155.89C52.73 155.89 53.77 156.71 54.07 157.51C54.19 157.07 54.4 156.41 54.51 156.13H57.18C56.96 157.05 56.7 158.18 56.48 159.22L54.88 166.68V166.69ZM47.57 163.26C47.57 164.94 48.29 165.86 49.73 165.86C51.61 165.86 52.77 164.21 53.27 161.88C53.68 160.01 53.42 158.18 51.16 158.18C48.9 158.18 47.57 160.87 47.57 163.26ZM63.96 157.8L65.4 151H62.63L58.98 168.25H61.76L63.21 161.44C63.61 159.57 64.68 158.24 66.42 158.24C67.96 158.24 68.31 159.14 67.95 160.88L66.41 168.25H69.17L70.81 160.48C71.53 156.99 69.77 155.89 67.75 155.89C65.84 155.89 64.72 156.8 63.96 157.8ZM74.58 156.13H76.45L77.17 152.78H79.93L79.22 156.13H81.6L81.12 158.29H78.74L77.38 164.81C77.2 165.68 77.26 166.19 78.25 166.19C78.61 166.19 78.98 166.17 79.34 166.11L78.9 168.17C78.24 168.38 77.52 168.39 76.9 168.39C74.58 168.39 74.12 167.12 74.55 165.03L75.96 158.29H74.09L74.57 156.13H74.58ZM87.68 166.38C86.15 166.38 85.43 165.66 85.33 164.54V164.55H82.51C82.42 166.99 84.16 168.5 87.34 168.5C90.22 168.5 92.54 167.18 92.54 164.52C92.54 162.83 91.53 161.75 88.8 160.85C87.23 160.33 86.57 160.03 86.57 159.31C86.57 158.38 87.41 157.99 88.35 157.99C89.92 157.99 90.28 158.78 90.33 159.5H93.15C93.23 157.63 91.83 155.9 88.53 155.9C85.4 155.9 83.78 157.56 83.78 159.65C83.78 161.11 84.63 162.07 87.39 162.96C88.98 163.48 89.67 163.89 89.67 164.81C89.67 165.73 89.06 166.38 87.68 166.38ZM117.21 161.85C117.81 158.98 118.53 155.76 118.97 153.96H118.88C117.54 156.99 114.39 163.18 111.78 168.26H109.24C109.182 167.503 109.112 166.621 109.036 165.668C108.708 161.546 108.276 156.113 108.26 153.92H108.16C107.9 155.77 107.19 159.37 106.6 162.17L105.32 168.25H102.62L106.08 151.94H110.45C110.84 156.21 111.31 162.18 111.35 164.5H111.38C111.931 163.138 113.595 159.95 115.346 156.596L115.346 156.596C116.167 155.023 117.007 153.414 117.76 151.94H122.14L118.68 168.25H115.85L117.21 161.84V161.85ZM133.07 168.26C133.1 167.86 133.37 166.45 133.62 165.28V165.29L134.71 160.23C135.37 157.14 133.32 155.91 130.43 155.91C126.78 155.91 125.43 157.6 124.99 159.5H127.83L127.847 159.461C128.154 158.766 128.542 157.89 130.2 157.89C132.12 157.89 132.14 159.14 131.95 160.11L131.83 160.76C131.682 160.764 131.522 160.767 131.351 160.771H131.351C130.703 160.784 129.903 160.801 129.04 160.88C126.45 161.15 123.4 162.01 123.4 165.41C123.4 166.84 124.44 168.5 126.77 168.5C129.1 168.5 129.97 167.57 130.58 166.73C130.49 167.21 130.39 167.88 130.36 168.26H133.07ZM129.19 162.79C129.95 162.71 130.68 162.66 131.42 162.66L131.37 162.85C130.99 164.46 130.28 166.34 127.93 166.34C126.8 166.34 126.29 165.71 126.29 164.94C126.29 163.61 127.34 163.04 129.19 162.79ZM139.33 159.21C139.385 158.939 139.44 158.669 139.495 158.4C139.652 157.638 139.807 156.884 139.94 156.13H142.66C142.63 156.48 142.46 157.52 142.38 157.83C142.99 156.97 144.09 155.89 146.18 155.89C148.54 155.89 149.94 157.3 149.18 160.84L147.62 168.26H144.86L146.42 160.85C146.75 159.33 146.42 158.26 144.89 158.26C143.1 158.26 142.02 159.74 141.53 162.06L140.22 168.26H137.44L139.35 159.21H139.33ZM161.57 168.26C161.6 167.86 161.87 166.45 162.12 165.28V165.29L163.21 160.23C163.87 157.14 161.82 155.91 158.93 155.91C155.28 155.91 153.93 157.6 153.49 159.5H156.33L156.347 159.461C156.654 158.766 157.042 157.89 158.7 157.89C160.62 157.89 160.64 159.14 160.45 160.11L160.33 160.76C160.232 160.763 160.129 160.765 160.021 160.767L159.851 160.771H159.851C159.203 160.784 158.403 160.801 157.54 160.88C154.95 161.15 151.9 162.01 151.9 165.41C151.9 166.84 152.94 168.5 155.27 168.5C157.6 168.5 158.47 167.57 159.08 166.73C158.99 167.21 158.89 167.88 158.86 168.26H161.57ZM157.69 162.79C158.45 162.71 159.18 162.66 159.92 162.66L159.87 162.85C159.5 164.46 158.78 166.34 156.43 166.34C155.3 166.34 154.79 165.71 154.79 164.94C154.79 163.61 155.84 163.04 157.69 162.79ZM176.62 166.69C175.79 170.59 174.67 173.18 170.13 173.18C165.59 173.18 165.33 170.81 165.32 169.39H168.13C168.16 170.25 168.74 171.06 170.36 171.06C172.44 171.06 173.19 169.73 173.79 167.05L173.93 166.44C173.12 167.56 172.02 168.14 170.37 168.14C167.82 168.14 166.38 166.31 166.38 163.45C166.38 159.87 168.63 155.89 172.52 155.89C174.47 155.89 175.51 156.71 175.81 157.51C175.93 157.07 176.14 156.41 176.25 156.13H178.92C178.7 157.05 178.44 158.18 178.22 159.22L176.62 166.68V166.69ZM169.31 163.26C169.31 164.94 170.03 165.86 171.47 165.86C173.35 165.86 174.51 164.21 175.01 161.88C175.42 160.01 175.16 158.18 172.9 158.18C170.64 158.18 169.31 160.87 169.31 163.26ZM183.97 163.64C183.97 163.33 184 163.1 184.05 162.77L184.06 162.78H192C192.21 162.05 192.32 161.35 192.32 160.45C192.32 158.06 191.13 155.9 187.67 155.9C182.96 155.9 181.17 160.3 181.17 163.57C181.17 166.46 182.7 168.49 185.89 168.49C189.35 168.49 190.87 166.47 191.59 164.65H188.7C188.24 165.51 187.66 166.3 186.14 166.3C184.62 166.3 183.97 165.18 183.97 163.64ZM189.65 160.2C189.65 160.39 189.64 160.61 189.59 160.86V160.85H184.45C184.93 159.07 186.04 158.02 187.56 158.02C189.08 158.02 189.65 158.94 189.65 160.2ZM196.47 159.53C196.71 158.39 196.95 157.24 197.15 156.13H199.87C199.83 156.43 199.72 157.18 199.61 157.7C200.39 156.67 201.34 155.9 203.07 155.9C204.8 155.9 205.62 156.66 205.85 157.94C206.7 156.84 207.9 155.9 209.84 155.9C211.88 155.9 213.45 157.07 212.74 160.38L211.07 168.26H208.36L209.96 160.72C210.21 159.52 210.17 158.24 208.51 158.24C206.85 158.24 206.1 159.5 205.7 161.41L204.24 168.26H201.5L203.09 160.76C203.39 159.36 203.19 158.26 201.7 158.26C200.1 158.26 199.21 159.52 198.78 161.6L197.38 168.26H194.63L196.47 159.54V159.53ZM218.848 162.78L218.836 162.859C218.793 163.143 218.76 163.359 218.76 163.64C218.76 165.18 219.41 166.3 220.93 166.3C222.45 166.3 223.03 165.51 223.49 164.65H226.38C225.66 166.47 224.14 168.49 220.67 168.49C217.48 168.49 215.95 166.46 215.95 163.57C215.95 160.3 217.74 155.9 222.45 155.9C225.91 155.9 227.1 158.06 227.1 160.45C227.1 161.35 226.99 162.05 226.78 162.78H218.848ZM224.45 160.2C224.45 160.39 224.44 160.61 224.39 160.86V160.85H219.25C219.73 159.07 220.84 158.02 222.36 158.02C223.88 158.02 224.45 158.94 224.45 160.2ZM231.34 159.21C231.395 158.939 231.45 158.669 231.505 158.401L231.506 158.398C231.662 157.636 231.817 156.883 231.95 156.13H234.67C234.64 156.48 234.47 157.52 234.39 157.83C235 156.97 236.1 155.89 238.19 155.89C240.55 155.89 241.95 157.3 241.19 160.84L239.63 168.26H236.87L238.43 160.85C238.76 159.33 238.43 158.26 236.9 158.26C235.11 158.26 234.03 159.74 233.54 162.06L232.23 168.26H229.45L231.36 159.21H231.34ZM246.9 156.13H245.03H245.02L244.54 158.29H246.41L245 165.03C244.57 167.12 245.03 168.39 247.35 168.39C247.97 168.39 248.69 168.38 249.35 168.17L249.79 166.11C249.43 166.17 249.06 166.19 248.7 166.19C247.71 166.19 247.65 165.68 247.83 164.81L249.19 158.29H251.57L252.05 156.13H249.67L250.38 152.78H247.62L246.9 156.13ZM262.85 163.34L262.851 163.35H259.92C260.01 166.44 262.05 168.51 266.02 168.51C270.81 168.51 272.4 166.04 272.4 163.46C272.4 161.11 270.92 159.76 267.59 158.56C265.37 157.76 264.85 157.14 264.85 156.16C264.85 154.84 265.88 154.01 267.49 154.01C269.7 154.01 270.27 155.22 270.38 156.44H273.31C273.26 153.72 271.37 151.72 267.64 151.72C263.67 151.72 261.87 153.94 261.87 156.48C261.87 158.48 263.04 159.75 266.26 160.89C268.59 161.73 269.36 162.48 269.36 163.82C269.36 165.48 268.21 166.24 266.31 166.24C264.154 166.24 263.004 165.174 262.851 163.35H262.86L262.85 163.34ZM279.78 166.02C279.74 164.77 279.44 161.38 278.9 156.13H276.12L277.81 168.95C277.12 170.17 276.64 170.79 275.13 170.79C274.61 170.79 274.29 170.74 274.06 170.69L273.54 173.02C273.94 173.11 274.69 173.18 275.07 173.18C277.49 173.18 278.75 172.81 280.82 168.85L287.47 156.13H284.56C282.406 160.406 281.054 163.322 280.277 164.998C280.186 165.194 280.103 165.373 280.027 165.536C279.942 165.718 279.866 165.88 279.8 166.02H279.78ZM291.14 164.54C291.24 165.66 291.96 166.38 293.49 166.38C294.87 166.38 295.48 165.73 295.48 164.81C295.48 163.89 294.79 163.48 293.2 162.96C290.44 162.07 289.59 161.11 289.59 159.65C289.59 157.56 291.21 155.9 294.34 155.9C297.64 155.9 299.04 157.63 298.96 159.5H296.14C296.09 158.78 295.73 157.99 294.16 157.99C293.21 157.99 292.38 158.38 292.38 159.31C292.38 160.03 293.04 160.33 294.61 160.85C297.34 161.75 298.35 162.83 298.35 164.52C298.35 167.18 296.03 168.5 293.15 168.5C289.97 168.5 288.23 166.99 288.32 164.55H291.14V164.54ZM303.81 156.13H301.94H301.93L301.45 158.29H303.32L301.91 165.03C301.48 167.12 301.94 168.39 304.26 168.39C304.88 168.39 305.6 168.38 306.26 168.17L306.7 166.11C306.34 166.17 305.97 166.19 305.61 166.19C304.62 166.19 304.56 165.68 304.74 164.81L306.1 158.29H308.48L308.96 156.13H306.58L307.29 152.78H304.53L303.81 156.13ZM312.916 162.859L312.928 162.78H320.86C321.07 162.05 321.18 161.35 321.18 160.45C321.18 158.06 319.99 155.9 316.53 155.9C311.82 155.9 310.03 160.3 310.03 163.57C310.03 166.46 311.56 168.49 314.75 168.49C318.22 168.49 319.74 166.47 320.46 164.65H317.57C317.11 165.51 316.53 166.3 315.01 166.3C313.49 166.3 312.84 165.18 312.84 163.64C312.84 163.359 312.873 163.143 312.916 162.859ZM318.47 160.86C318.52 160.61 318.53 160.39 318.53 160.2C318.53 158.94 317.96 158.02 316.44 158.02C314.92 158.02 313.81 159.07 313.33 160.85H318.47V160.86ZM326.03 156.13C325.83 157.24 325.59 158.39 325.35 159.53V159.54L323.51 168.26H326.26L327.66 161.6C328.09 159.52 328.98 158.26 330.58 158.26C332.07 158.26 332.27 159.36 331.97 160.76L330.38 168.26H333.12L334.58 161.41C334.98 159.5 335.73 158.24 337.39 158.24C339.05 158.24 339.09 159.52 338.84 160.72L337.24 168.26H339.95L341.62 160.38C342.33 157.07 340.76 155.9 338.72 155.9C336.78 155.9 335.58 156.84 334.73 157.94C334.5 156.66 333.68 155.9 331.95 155.9C330.22 155.9 329.27 156.67 328.49 157.7C328.6 157.18 328.71 156.43 328.75 156.13H326.03Z" fill="white"/>
</g>
<defs>
<clipPath id="clip0_3_2">
<rect width="469.22" height="178.33" fill="white"/>
</clipPath>
</defs>
</svg>
