<svg width="1124" height="46" viewBox="0 0 1124 46" fill="none" xmlns="http://www.w3.org/2000/svg">
<path d="M21.1778 37.0973L6.29792 19.3255L11.3279 15.1178L21.1862 26.8928L42.4648 1.46138C41.138 0.537521 39.5342 0 37.8043 0H8.20408C3.69477 0 0 3.68706 0 8.20559V37.8028C0 42.3129 3.68637 46 8.20408 46H37.8043C42.3136 46 46 42.3129 46 37.8028V8.20559C46 7.96202 45.9916 7.72686 45.9664 7.49169L21.1694 37.1057L21.1778 37.0973Z" fill="#4CBCBC"/>
<path d="M73.4875 45.7447V3.11655L70.0628 17.7397H71.4626V45.7447H62.1305V20.3897H60L64.8773 0.114452H74.1037L73.9981 0.633875H105.947V45.7447H73.4875ZM97.1874 5.66086H82.0888V40.7177H97.1786V5.66086H97.1874ZM93.8155 16.1374V21.0676H95.7876V38.279H83.7615V21.0676H85.7864V16.1374H83.0924V11.3129H85.7864V7.11349H93.8243V11.3129H96.2101V16.1374H93.8243H93.8155ZM90.4436 25.9889H88.8854V33.2521H90.4436V25.9889Z" fill="#4CBCBC"/>
<path d="M145.776 45.8415L138.618 41.017H132.244L124.779 45.8415H111.45L118.713 41.017H115.288V19.9671H155.477V41.017H151.85L159.263 45.8415H145.784H145.776ZM148.522 10.1156V6.48842H136.699L134.621 10.1684H125.492L121.706 18.5144H112.057L116.362 9.34086H124.919L125.8 7.83541H116.468L111.854 0.105648H121.812L126.064 7.31599L130.316 0.105648H140.432L139.243 2.28019H157.705V10.1068H148.531L148.522 10.1156ZM146.084 18.5144L142.245 15.9701L137.113 18.5144H122.331L136.435 11.2513V7.8266H145.767V11.3481H148.1L159.193 18.5056H146.075L146.084 18.5144ZM146.137 24.4218H124.62V25.9801H146.137V24.4218ZM146.137 29.7129H124.62V31.2712H146.137V29.7129ZM146.137 34.7927H124.62V36.4478H146.137V34.7927Z" fill="#4CBCBC"/>
<path d="M167.195 42.7866H163.876L164.704 14.0597H168.023L167.195 42.7866ZM177.461 11.7267V46H168.648L168.701 11.7267H164.088V6.95503H168.648V0.00880571H177.461V6.95503H181.299V11.7267H177.461ZM183.421 46V31.685H181.863L182.224 42.7778H179.01L178.077 14.0509H181.343L181.81 28.3131L184.97 20.9531H193.889L193.114 23.0836H195.086L194.619 20.9531H203.485L203.951 23.0836H209.859V27.4415H203.899V29.3079H208.978V33.4545H203.899V35.4266H208.978V39.5732H203.899V41.4924H210.07V46H183.421V46ZM206.601 7.00785V8.66297H198.044V7.00785H193.536V8.66297H185.085V7.00785H182.021V2.54431H185.085V0H193.536V2.54431H198.044V0H206.601V2.54431H210.176V7.00785H206.601ZM182.805 19.9231V9.76345H195.095V19.9231H182.805V19.9231ZM190.217 13.8044H187.62V15.9261H190.217V13.8044ZM195.35 27.4415H191.978V29.3079H195.35V27.4415ZM195.35 33.4545H191.978V35.4266H195.35V33.4545ZM195.35 39.5732H191.978V41.4924H195.35V39.5732ZM196.644 19.9231V9.76345H209.137V19.9231H196.644ZM204.11 13.8044H201.469V15.9261H204.11V13.8044Z" fill="#4CBCBC"/>
<path d="M221.541 43.5613H215.581L217.659 19.8614H223.619L221.541 43.5613ZM240.417 7.06067H233.471V12.5014H242.028V17.4756H233.471V45.8415H224.447V17.4756H215.995V12.5014H224.447V7.06067H217.14V2.03369H232.018L232.846 0.114454H242.908L240.417 7.06067ZM236.323 43.5613L234.351 19.8614H240.364L242.283 43.5613H236.323ZM243.216 36.2982V4.25225H250.427V36.2982H243.216ZM246.324 45.8415L244.15 40.7089H252.135V0.105648H261.361V45.8415H246.324V45.8415Z" fill="#4CBCBC"/>
<path d="M310.416 7.15752L311.763 11.4626H303.003L301.762 7.15752H300.468L299.015 11.4626H295.696L296.418 13.2762H313.321V22.2473H310.108V31.5265H280.342V33.4986H311.869V45.6831H270.904V22.2473H268.413V13.2762H285.73L284.797 11.4626H280.65L279.356 7.26316H278.581L277.129 11.4626H267.48L271.626 0.0528336H281.011L280.236 2.33302H290.713V7.26316H287.702L288.891 10.3709H290.238L293.865 0.0528336H302.942L302.167 2.2802H313.312V7.15752H310.407H310.416ZM303.672 18.1007H278.009V20.0727H303.672V18.1007ZM300.609 24.7916H280.333V26.9661H300.609V24.7916ZM302.316 38.2174H280.333V41.0699H302.316V38.2174Z" fill="#4CBCBC"/>
<path d="M336.088 46V43.0419L319.493 45.5862V40.5064L323.384 39.8813V23.8056H320.118V18.9811H323.384V5.2911H319.598V0.51943H336.502V5.2911H332.971V18.9811H335.718V23.8056H332.971V38.3759L336.396 37.8036V41.0699H346.459V36.1397H337.902V31.2096H346.459V26.9573H337.488V0.510624H364.815V26.9573H355.844V31.2096H364.04V36.1397H355.844V41.0699H365.959V46H336.088V46ZM346.459 5.50239H343.967V11.2073H346.459V5.50239ZM346.459 16.0846H343.967V21.9479H346.459V16.0846ZM358.388 5.50239H355.844V11.2073H358.388V5.50239ZM358.388 16.0846H355.844V21.9479H358.388V16.0846Z" fill="#4CBCBC"/>
<path d="M381.833 44.5474H371.303L377.889 31.4297H388.365L381.833 44.5474ZM407.399 29.7658L405.277 26.3411L403.103 29.8186H399.572V45.6302H386.455L384.227 40.6561H389.668V29.8186H371.99V24.9941H380.6L388.533 19.1307H373.962V14.5175L383.919 7.25436H371.99V2.2802H406.211L406.985 0.0528336H417.77L415.279 7.26316H397.644L388.048 14.2622H395.1L401.377 9.59618H414.909L402.513 18.9811H411.017L417.858 29.7658H407.381H407.399ZM401.228 19.9143L394.59 24.8884H404.335L401.228 19.9143ZM407.602 44.5474L400.964 31.4297H411.387L418.131 44.5474H407.602Z" fill="#4CBCBC"/>
<path d="M434.26 10.7935H442.192V15.5123L437.314 20.8563H442.658V29.933H423.941V24.4394L431.618 15.7765H423.792V10.8991L432.552 0.00880571H442.975L434.26 10.7935ZM423.889 45.8944V31.6322H429.488V45.8944H423.889ZM430.888 45.8944V31.6322H436.284V45.8944H430.888ZM436.848 21.4197L433.634 24.9941H436.848V21.4197ZM437.781 45.8944V31.6322H443.019V45.8944H437.781ZM461.217 23.3389L460.125 20.0727L458.725 23.3389H443.38V18.5673L447.272 9.64899H442.764V4.77168H451.374L450.027 0H459.623L460.918 4.77168H469.061V9.64899H456.199L452.466 18.4616H459.623L457.396 11.8764H466.156L469.941 23.3389H461.234H461.217ZM452.457 45.8944H443.327L445.916 38.3231V25.2054H454.781V39.6172L452.448 45.8944H452.457ZM468.691 45.8944H457.026V25.2054H465.892V40.8145H470.399L468.691 45.8944Z" fill="#4CBCBC"/>
<path d="M1007.67 31.0097C1007.71 29.9037 1006.33 29.2073 1004.81 29.2073H995.773L992.55 45.825H980.834L989.56 0.942181H1011.89C1014.63 0.942181 1017.85 1.40643 1020.32 2.81286C1023.22 4.45142 1024.12 7.00483 1024.43 9.87231C1024.73 12.5486 1023.9 15.58 1022.85 18.0378C1021.63 20.7141 1019.23 23.1719 1016.45 24.278C1018.64 25.5615 1019.34 27.9511 1019.23 30.3406C1019.03 34.3687 1019.07 40.486 1020.71 45.8523H1007.94C1007.34 40.841 1007.5 35.5294 1007.67 31.0507V31.0097ZM999.268 11.2514L997.821 18.7069H1006.33C1007.49 18.7069 1008.57 18.584 1009.39 17.9422C1011.48 16.4812 1012.39 13.5727 1010.68 12.1663C1009.88 11.5245 1008.65 11.2378 1007.78 11.2378H999.268V11.2514Z" fill="#4CBCBC"/>
<path d="M1067.98 21.5607L1054.12 45.8113H1044.03L1039.59 21.5607L1034.88 45.8113H1023.34L1032.05 0.983139H1046.92L1052.07 30.2996L1068.85 0.983139H1083.6L1074.89 45.8113H1063.28L1067.99 21.5607H1067.98Z" fill="#4CBCBC"/>
<path d="M1092.49 45.47C1083.04 43.7222 1079.52 37.1952 1082.33 27.5687H1094.05C1092.94 32.935 1092.94 34.792 1098.41 35.6659C1100.61 36.0756 1103.13 36.0209 1105.23 35.3792C1106.95 34.9149 1107.9 33.9181 1108.04 32.935C1108.22 32.0065 1107.67 30.9551 1106.02 30.1358C1102.92 28.6748 1095.23 25.9438 1090.95 24.3053C1086.17 22.5029 1084.75 18.4201 1085.99 13.2314C1086.94 8.91649 1090.51 4.95663 1094.96 3.08595C1100.79 0.696385 1108.12 -0.122894 1113.84 1.57028C1117.65 2.67631 1121.15 5.06588 1122.41 8.7936C1123.25 11.3061 1123.23 14.1599 1122.69 17.5326H1110.57C1111.02 13.682 1110.92 10.8827 1106.48 10.3639C1104.33 10.0771 1101.68 10.4868 1099.74 11.1832C1096.18 12.4121 1097.85 14.8563 1100.08 15.4434C1103.9 16.4948 1108.76 18.4747 1111.99 19.5808C1115.05 20.6322 1118.5 22.9671 1119.83 25.4659C1121.52 28.7294 1121.01 32.8667 1119.1 36.7173C1116.79 41.3736 1112.38 43.7085 1107.88 44.992C1103.14 46.2756 1096.74 46.221 1092.52 45.4563L1092.49 45.47Z" fill="#4CBCBC"/>
<path fill-rule="evenodd" clip-rule="evenodd" d="M970.512 45.1422H483V0H978.923L970.512 45.1422ZM515.839 32.2386L517.816 22.8715H522.039C524.81 22.8715 525.411 24.2506 524.838 26.9406C524.237 29.6442 524.032 31.2828 524.155 32.2523H527.91C527.791 31.2769 528.144 29.6146 528.659 27.1794L528.716 26.9133C529.494 23.1173 527.746 21.9567 526.722 21.5061C529.521 20.796 531.406 18.8024 531.406 15.6482C531.406 12.1253 529.002 9.96789 524.783 9.96789H516.645L511.921 32.2386H515.839ZM518.502 19.6627H522.462C525.411 19.6627 527.378 18.6386 527.378 16.0442C527.378 14.1462 526.272 13.1631 523.896 13.1631H519.868L518.502 19.6627ZM540.814 15.6892H537.018L533.509 32.2523H537.305L540.814 15.6892ZM542.288 8.68435H538.492L537.673 12.6032H541.469L542.288 8.68435ZM557.937 30.1085C556.803 35.4338 555.274 38.9703 549.075 38.9703C542.876 38.9703 542.521 35.7342 542.507 33.7952H546.344C546.385 34.9695 547.177 36.0756 549.389 36.0756C552.229 36.0756 553.253 34.2595 554.072 30.6001L554.264 29.7671C553.158 31.2964 551.656 32.0884 549.403 32.0884C545.921 32.0884 543.954 29.5896 543.954 25.6844C543.954 20.796 547.027 15.3615 552.338 15.3615C555.001 15.3615 556.421 16.4811 556.831 17.5735C556.994 16.9727 557.281 16.0715 557.431 15.6892H561.077C560.777 16.9454 560.422 18.4884 560.121 19.9085L557.937 30.0948V30.1085ZM547.955 25.4249C547.955 27.7189 548.938 28.9752 550.905 28.9752C553.472 28.9752 555.056 26.7221 555.738 23.5406C556.298 20.9872 555.943 18.4884 552.857 18.4884C549.771 18.4884 547.955 22.1615 547.955 25.4249ZM570.335 17.9695L572.301 8.68435H568.519L563.535 32.2386H567.331L569.311 22.9398C569.857 20.3864 571.318 18.5703 573.694 18.5703C575.797 18.5703 576.275 19.7992 575.783 22.1751L573.68 32.2386H577.449L579.689 21.6289C580.672 16.8635 578.268 15.3615 575.51 15.3615C572.902 15.3615 571.373 16.604 570.335 17.9695ZM584.836 15.6892H587.39L588.373 11.1149H592.141L591.172 15.6892H594.422L593.766 18.6386H590.517L588.66 27.5414C588.414 28.7294 588.496 29.4258 589.847 29.4258C590.339 29.4258 590.844 29.3984 591.336 29.3165L590.735 32.1294C589.834 32.4161 588.851 32.4298 588.004 32.4298C584.836 32.4298 584.208 30.6956 584.795 27.8418L586.721 18.6386H584.167L584.823 15.6892H584.836ZM602.724 29.6852C600.635 29.6852 599.652 28.702 599.515 27.1727V27.1864H595.664C595.541 30.5181 597.917 32.58 602.26 32.58C606.192 32.58 609.36 30.7776 609.36 27.1454C609.36 24.8378 607.981 23.3631 604.253 22.1342C602.109 21.4241 601.208 21.0145 601.208 20.0314C601.208 18.7615 602.355 18.229 603.639 18.229C605.782 18.229 606.274 19.3077 606.342 20.2908H610.193C610.302 17.7374 608.39 15.3751 603.884 15.3751C599.611 15.3751 597.398 17.6418 597.398 20.4956C597.398 22.4892 598.559 23.8 602.328 25.0153C604.499 25.7254 605.441 26.2852 605.441 27.5414C605.441 28.7976 604.608 29.6852 602.724 29.6852ZM643.046 23.4996C643.865 19.5808 644.848 15.184 645.449 12.7261H645.326C643.497 16.8635 639.195 25.3157 635.632 32.2523H632.163C632.084 31.2247 631.989 30.0266 631.886 28.7336L631.885 28.7132L631.884 28.7115C631.437 23.083 630.847 15.6659 630.825 12.6715H630.689C630.334 15.1976 629.364 20.1133 628.558 23.9366L626.811 32.2386H623.124L627.848 9.96789H633.815C634.348 15.7984 634.99 23.9502 635.044 27.1181H635.085C635.838 25.259 638.11 20.9066 640.5 16.3268L640.501 16.3264L640.501 16.3251C641.622 14.1781 642.769 11.9812 643.797 9.96789H649.778L645.053 32.2386H641.189L643.046 23.486V23.4996ZM664.702 32.2523C664.743 31.7061 665.112 29.7808 665.453 28.1832V28.1968L666.942 21.2876C667.843 17.0683 665.044 15.3888 661.098 15.3888C656.114 15.3888 654.27 17.6964 653.669 20.2908H657.547L657.571 20.2369C657.99 19.2889 658.519 18.0924 660.783 18.0924C663.405 18.0924 663.432 19.7992 663.173 21.1237L663.009 22.0113C662.807 22.017 662.589 22.0215 662.357 22.0262L662.356 22.0263C661.471 22.0445 660.378 22.067 659.2 22.1751C655.663 22.5438 651.498 23.7181 651.498 28.3607C651.498 30.3133 652.918 32.58 656.1 32.58C659.281 32.58 660.469 31.3101 661.302 30.1631C661.179 30.8185 661.043 31.7334 661.002 32.2523H664.702ZM659.404 24.7832C660.442 24.6739 661.439 24.6057 662.449 24.6057L662.381 24.8651C661.862 27.0635 660.893 29.6306 657.684 29.6306C656.141 29.6306 655.445 28.7703 655.445 27.7189C655.445 25.9029 656.878 25.1245 659.404 24.7832ZM673.475 18.7954L673.476 18.7889L673.476 18.788C673.69 17.7477 673.901 16.7185 674.083 15.6892H677.797C677.756 16.1671 677.524 17.5872 677.415 18.0105C678.248 16.8362 679.75 15.3615 682.604 15.3615C685.826 15.3615 687.738 17.2868 686.7 22.1205L684.57 32.2523H680.801L682.931 22.1342C683.382 20.0587 682.931 18.5976 680.842 18.5976C678.398 18.5976 676.923 20.6185 676.254 23.7864L674.465 32.2523H670.669L673.277 19.8948H673.25C673.324 19.5295 673.399 19.166 673.473 18.8038L673.475 18.7954ZM703.618 32.2523C703.659 31.7061 704.028 29.7808 704.369 28.1832V28.1968L705.857 21.2876C706.759 17.0683 703.959 15.3888 700.013 15.3888C695.029 15.3888 693.186 17.6964 692.585 20.2908H696.463L696.487 20.2369C696.906 19.2889 697.435 18.0924 699.699 18.0924C702.321 18.0924 702.348 19.7992 702.089 21.1237L701.925 22.0113C701.723 22.017 701.505 22.0215 701.272 22.0262L701.272 22.0263C700.386 22.0445 699.294 22.067 698.115 22.1751C694.579 22.5438 690.414 23.7181 690.414 28.3607C690.414 30.3133 691.834 32.58 695.016 32.58C698.197 32.58 699.385 31.3101 700.218 30.1631C700.095 30.8185 699.959 31.7334 699.918 32.2523H703.618ZM698.32 24.7832C699.358 24.6739 700.355 24.6057 701.365 24.6057L701.297 24.8651C700.792 27.0635 699.808 29.6306 696.6 29.6306C695.057 29.6306 694.36 28.7703 694.36 27.7189C694.36 25.9029 695.794 25.1245 698.32 24.7832ZM724.168 30.1085C723.035 35.4338 721.506 38.9703 715.306 38.9703C709.107 38.9703 708.752 35.7342 708.739 33.7952H712.575C712.616 34.9695 713.408 36.0756 715.62 36.0756C718.461 36.0756 719.485 34.2595 720.304 30.6001L720.495 29.7671C719.389 31.2964 717.887 32.0884 715.634 32.0884C712.152 32.0884 710.186 29.5896 710.186 25.6844C710.186 20.796 713.258 15.3615 718.57 15.3615C721.233 15.3615 722.653 16.4811 723.062 17.5735C723.226 16.9727 723.513 16.0715 723.663 15.6892H727.309C727.008 16.9454 726.653 18.4884 726.353 19.9085L724.168 30.0948V30.1085ZM714.187 25.4249C714.187 27.7189 715.17 28.9752 717.136 28.9752C719.703 28.9752 721.287 26.7221 721.97 23.5406C722.53 20.9872 722.175 18.4884 719.089 18.4884C716.003 18.4884 714.187 22.1615 714.187 25.4249ZM734.204 25.9438C734.204 25.5205 734.245 25.2065 734.314 24.7559L734.327 24.7695H745.169C745.456 23.7727 745.606 22.8169 745.606 21.588C745.606 18.3245 743.981 15.3751 739.257 15.3751C732.825 15.3751 730.381 21.3832 730.381 25.8482C730.381 29.7944 732.47 32.5663 736.826 32.5663C741.551 32.5663 743.626 29.8081 744.609 27.3229H740.663C740.035 28.4972 739.243 29.576 737.167 29.576C735.092 29.576 734.204 28.0466 734.204 25.9438ZM741.96 21.2466C741.96 21.5061 741.947 21.8065 741.878 22.1478V22.1342H734.86C735.515 19.7037 737.031 18.2699 739.106 18.2699C741.182 18.2699 741.96 19.5261 741.96 21.2466ZM751.273 20.3318C751.6 18.7751 751.928 17.2049 752.201 15.6892H755.915C755.861 16.0988 755.71 17.1229 755.56 17.833C756.625 16.4265 757.923 15.3751 760.285 15.3751C762.647 15.3751 763.767 16.4129 764.081 18.1607C765.241 16.6587 766.88 15.3751 769.529 15.3751C772.315 15.3751 774.458 16.9727 773.489 21.4924L771.208 32.2523H767.508L769.693 21.9567C770.034 20.3181 769.98 18.5703 767.713 18.5703C765.446 18.5703 764.422 20.2908 763.876 22.8988L761.882 32.2523H758.141L760.312 22.0113C760.722 20.0996 760.449 18.5976 758.414 18.5976C756.229 18.5976 755.014 20.3181 754.427 23.1583L752.515 32.2523H748.76L751.273 20.3454V20.3318ZM781.83 24.7695L781.813 24.8777C781.754 25.2656 781.709 25.5597 781.709 25.9438C781.709 28.0466 782.596 29.576 784.672 29.576C786.747 29.576 787.539 28.4972 788.167 27.3229H792.114C791.13 29.8081 789.055 32.5663 784.317 32.5663C779.961 32.5663 777.872 29.7944 777.872 25.8482C777.872 21.3832 780.316 15.3751 786.747 15.3751C791.472 15.3751 793.097 18.3245 793.097 21.588C793.097 22.8169 792.947 23.7727 792.66 24.7695H781.83ZM789.478 21.2466C789.478 21.5061 789.465 21.8065 789.396 22.1478V22.1342H782.378C783.033 19.7037 784.549 18.2699 786.624 18.2699C788.7 18.2699 789.478 19.5261 789.478 21.2466ZM798.886 19.8948C798.961 19.525 799.037 19.1571 799.112 18.7906C799.326 17.7494 799.537 16.7193 799.719 15.6892H803.433C803.392 16.1671 803.16 17.5872 803.051 18.0105C803.884 16.8362 805.386 15.3615 808.24 15.3615C811.462 15.3615 813.374 17.2868 812.336 22.1205L810.206 32.2523H806.437L808.567 22.1342C809.018 20.0587 808.567 18.5976 806.478 18.5976C804.034 18.5976 802.559 20.6185 801.89 23.7864L800.102 32.2523H796.306L798.914 19.8948H798.886ZM820.133 15.6892H817.58H817.566L816.911 18.6386H819.464L817.539 27.8418C816.952 30.6956 817.58 32.4298 820.747 32.4298C821.594 32.4298 822.577 32.4161 823.478 32.1294L824.079 29.3165C823.588 29.3984 823.082 29.4258 822.591 29.4258C821.239 29.4258 821.157 28.7294 821.403 27.5414L823.26 18.6386H826.51L827.165 15.6892H823.915L824.885 11.1149H821.116L820.133 15.6892ZM841.912 25.5342L841.913 25.5478H837.911C838.034 29.7671 840.82 32.5936 846.241 32.5936C852.781 32.5936 854.952 29.2209 854.952 25.698C854.952 22.4892 852.931 20.6458 848.384 19.0073C845.353 17.9149 844.643 17.0683 844.643 15.7302C844.643 13.9277 846.05 12.7944 848.248 12.7944C851.266 12.7944 852.044 14.4466 852.194 16.1125H856.195C856.127 12.3984 853.546 9.66749 848.453 9.66749C843.032 9.66749 840.574 12.6988 840.574 16.1671C840.574 18.898 842.172 20.6322 846.568 22.1888C849.75 23.3358 850.801 24.3599 850.801 26.1896C850.801 28.4563 849.231 29.494 846.637 29.494C843.693 29.494 842.123 28.0383 841.913 25.5478H841.926L841.912 25.5342ZM865.029 29.1936C864.975 27.4868 864.565 22.8579 863.828 15.6892H860.032L862.34 33.1944C861.397 34.8603 860.742 35.7069 858.68 35.7069C857.97 35.7069 857.533 35.6386 857.219 35.5703L856.509 38.7519C857.055 38.8748 858.079 38.9703 858.598 38.9703C861.903 38.9703 863.623 38.4651 866.45 33.0579L875.53 15.6892H871.556C868.616 21.5268 866.769 25.509 865.708 27.7969L865.708 27.7975L865.708 27.798C865.444 28.3673 865.228 28.8317 865.057 29.1936H865.029ZM880.541 27.1727C880.678 28.702 881.661 29.6852 883.75 29.6852C885.634 29.6852 886.467 28.7976 886.467 27.5414C886.467 26.2852 885.525 25.7254 883.354 25.0153C879.585 23.8 878.425 22.4892 878.425 20.4956C878.425 17.6418 880.637 15.3751 884.911 15.3751C889.417 15.3751 891.328 17.7374 891.219 20.2908H887.368C887.3 19.3077 886.809 18.229 884.665 18.229C883.368 18.229 882.234 18.7615 882.234 20.0314C882.234 21.0145 883.135 21.4241 885.279 22.1342C889.007 23.3631 890.386 24.8378 890.386 27.1454C890.386 30.7776 887.218 32.58 883.286 32.58C878.944 32.58 876.568 30.5181 876.691 27.1864H880.541V27.1727ZM897.842 15.6892H895.288H895.274L894.619 18.6386H897.172L895.247 27.8418C894.66 30.6956 895.288 32.4298 898.456 32.4298C899.303 32.4298 900.286 32.4161 901.187 32.1294L901.788 29.3165C901.296 29.3984 900.791 29.4258 900.299 29.4258C898.948 29.4258 898.866 28.7294 899.111 27.5414L900.968 18.6386H904.218L904.874 15.6892H901.624L902.593 11.1149H898.825L897.842 15.6892ZM910.276 24.8773L910.293 24.7695H921.123C921.409 23.7727 921.56 22.8169 921.56 21.588C921.56 18.3245 919.935 15.3751 915.21 15.3751C908.779 15.3751 906.335 21.3832 906.335 25.8482C906.335 29.7944 908.424 32.5663 912.78 32.5663C917.518 32.5663 919.593 29.8081 920.577 27.3229H916.63C916.002 28.4972 915.21 29.576 913.135 29.576C911.059 29.576 910.172 28.0466 910.172 25.9438C910.172 25.5596 910.217 25.2653 910.276 24.8773ZM917.859 22.1478C917.928 21.8065 917.941 21.5061 917.941 21.2466C917.941 19.5261 917.163 18.2699 915.087 18.2699C913.012 18.2699 911.496 19.7037 910.841 22.1342H917.859V22.1478ZM928.182 15.6892C927.909 17.2049 927.581 18.7751 927.254 20.3318V20.3454L924.741 32.2523H928.496L930.408 23.1583C930.995 20.3181 932.21 18.5976 934.395 18.5976C936.43 18.5976 936.703 20.0996 936.293 22.0113L934.122 32.2523H937.863L939.857 22.8988C940.403 20.2908 941.427 18.5703 943.694 18.5703C945.961 18.5703 946.015 20.3181 945.674 21.9567L943.489 32.2523H947.189L949.47 21.4924C950.439 16.9727 948.296 15.3751 945.51 15.3751C942.861 15.3751 941.222 16.6587 940.062 18.1607C939.748 16.4129 938.628 15.3751 936.266 15.3751C933.904 15.3751 932.606 16.4265 931.541 17.833C931.691 17.1229 931.842 16.0988 931.896 15.6892H928.182Z" fill="#4CBCBC"/>
</svg>
